<?xml version="1.0" encoding="utf-8"?>
<!-- Generator: Adobe Illustrator 16.0.0, SVG Export Plug-In . SVG Version: 6.00 Build 0)  -->
<!DOCTYPE svg PUBLIC "-//W3C//DTD SVG 1.1//EN" "http://www.w3.org/Graphics/SVG/1.1/DTD/svg11.dtd">
<svg version="1.1" id="Layer_1" xmlns="http://www.w3.org/2000/svg" xmlns:xlink="http://www.w3.org/1999/xlink" x="0px" y="0px"
	 width="1000.932px" height="565.808px" viewBox="0 0 1000.932 565.808" enable-background="new 0 0 1000.932 565.808"
	 xml:space="preserve">
<path fill-rule="evenodd" clip-rule="evenodd" fill="#DCB91C" d="M755.079,76.002c1.663,30.457,3.326,60.923,4.998,91.387
	c40.222,0.72,69.452-49.099,58.549-70.686C806.18,72.066,783.868,65.771,755.079,76.002 M455.927,157.395
	c33.903,0,63.243,28.14,65.512,62.827c2.277,34.692-23.368,62.836-57.275,62.836c-33.904,0-63.251-28.145-65.521-62.836
	C396.36,185.535,422.01,157.395,455.927,157.395z M992.539,388.997h-58.358v-17.891c0-8.361-0.762-13.71-2.243-16.005
	c-1.472-2.291-3.976-3.408-7.482-3.408c-3.785,0-6.626,1.525-8.558,4.629c-1.948,3.063-2.91,7.751-2.91,14.022
	c0,8.046,1.074,14.166,3.265,18.236c2.079,4.079,8.038,8.972,17.781,14.783c27.976,16.612,45.558,30.214,52.85,40.868
	c7.275,10.652,10.896,27.832,10.896,51.528c0,17.223-2.027,29.915-6.055,38.065c-4.035,8.151-11.83,15.032-23.341,20.53
	c-11.571,5.509-24.979,8.312-40.309,8.312c-16.829,0-31.197-3.208-43.071-9.579c-11.918-6.375-19.713-14.473-23.385-24.309
	c-3.673-9.89-5.509-23.846-5.509-41.996v-15.793h58.349v29.399c0,9.072,0.823,14.883,2.443,17.482
	c1.688,2.551,4.599,3.876,8.773,3.876s7.284-1.633,9.319-4.95c2.044-3.256,3.065-8.149,3.065-14.615
	c0-14.227-1.939-23.551-5.811-27.929c-3.976-4.391-13.815-11.675-29.413-21.916c-15.642-10.394-25.983-17.89-31.085-22.579
	c-5.04-4.686-9.268-11.161-12.584-19.415c-3.361-8.257-4.989-18.803-4.989-31.646c0-18.501,2.339-32.05,7.085-40.62
	c4.677-8.558,12.324-15.234,22.883-20.067c10.54-4.798,23.289-7.246,38.213-7.246c16.359,0,30.27,2.65,41.737,7.904
	c11.52,5.301,19.114,11.927,22.882,19.973c3.725,8.007,5.561,21.608,5.561,40.818V388.997z M768.764,357.192v61.507
	c1.784,0.109,3.309,0.16,4.591,0.16c5.811,0,9.777-1.429,12.021-4.231c2.243-2.857,3.368-8.773,3.368-17.686V377.07
	c0-8.259-1.272-13.659-3.88-16.11C782.267,358.47,776.913,357.192,768.764,357.192z M229.448,358.896l-11.723,3.14v48.922
	c7.034,0,11.97-0.967,14.828-2.902c2.854-1.94,4.283-8.254,4.283-18.907v-13.25c0-7.696-1.373-12.694-4.131-15.085
	C231.843,360.061,230.752,359.419,229.448,358.896z M399.5,354.317c-6.137-2.019-12.148-4.451-18.038-7.262v150.027
	c0,10.544,0.559,17.33,1.729,20.23c1.125,2.953,3.417,4.436,6.938,4.436c3.971,0,6.517-1.633,7.695-4.846
	c1.117-3.261,1.676-10.909,1.676-22.936V354.317z M59.661,180.958L49.667,34.586c89.486,0,178.968,0,268.454,0
	c0.948,17.854,1.905,35.705,2.854,53.551c27.612-43.193,68.782-66.04,119.245-74.97c0.949,5.24,1.897,10.476,2.846,15.706
	c87.91-5.348,155.067,25.615,183.501,105.674c29.37,82.721,5.881,148.09-57.188,189.387c1.992,12.685,4.079,27.123,6.296,43.296
	l8.661,61.516l14.316-112.883h63.174L620.85,23.162c97.1-28.079,213.348-44.929,287.02,36.415
	c66.316,73.225,10.766,199.836-139.937,183.497l21.393,73.541c7.716,0.659,14.169,1.751,19.34,3.273
	c9.225,2.698,16.153,6.575,20.752,11.619c4.625,5.102,7.795,11.265,9.424,18.448c1.619,7.236,2.442,18.393,2.442,33.532v21.046
	c0,15.442-1.586,26.706-4.738,33.74c-3.213,7.084-9.076,12.484-17.582,16.308c-8.514,3.772-19.626,5.66-33.328,5.66h-16.871v97.324
	h-62.889V337.13l-25.221,4.62v215.816h-54.937V394.397l-21.965,163.169h-38.992l-23.125-159.45v159.45h-54.937V358.249
	c-8.21,1.686-16.317,2.829-24.307,3.431v115.733c0,18.295-0.615,31.192-1.785,38.575c-1.226,7.444-4.747,15.037-10.597,22.831
	c-5.915,7.852-13.615,13.754-23.247,17.782c-9.579,4.026-20.938,6.066-33.943,6.066c-14.472,0-27.208-2.396-38.217-7.184
	c-11.055-4.79-19.314-11.004-24.813-18.652c-5.452-7.696-8.718-15.75-9.683-24.256c-1.022-8.515-1.481-26.402-1.481-53.72V315.863
	H336.4c-57.384-52.573-62.481-118.215-34.697-187.747c-26.901,5.001-53.789,9.995-80.682,14.996l29.924,174.781
	c3.365,0.402,6.237,0.861,8.622,1.386c10.493,2.295,19.05,8.158,25.676,17.534c6.626,9.427,9.943,24.406,9.943,45.047
	c0,18.807-2.343,31.447-7.032,37.913c-4.638,6.474-13.862,10.35-27.621,11.619c12.437,3.108,20.843,7.236,25.117,12.433
	c4.231,5.146,6.938,9.887,7.956,14.217c1.065,4.336,1.58,16.266,1.58,35.775v63.749h-58.35v-80.306
	c0-12.947-1.073-20.951-3.114-24.052c-2.039-3.061-7.387-4.642-15.997-4.642v108.999h-62.883V370.149l-11.644-203.47L59.661,180.958
	z M140.464,315.863v48.362h-37.299v193.341h-62.84V364.226H3.122v-48.362H140.464z"/>
<path fill="#FFFFFF" d="M937.334,385.848h52.053v-6.388h0.018c0-9.453-0.451-17.512-1.352-24.19
	c-0.883-6.486-2.191-11.593-3.923-15.316c-1.689-3.62-4.271-6.938-7.753-9.968c-3.567-3.132-8.106-5.955-13.579-8.472
	c-3.639-1.667-7.57-3.071-11.779-4.196c-2.122-0.567-4.288-1.065-6.487-1.48c-6.765-1.286-14.136-1.933-22.077-1.94v0.018h-0.095
	c-10.438,0-19.73,1.213-27.881,3.607c-1.55,0.453-3.092,0.966-4.633,1.536c-1.491,0.55-2.945,1.144-4.349,1.78v-0.008l-0.043,0.026
	h-0.009c-4.989,2.29-9.294,5.009-12.888,8.153c-3.525,3.093-6.383,6.621-8.549,10.57l-0.008,0.026
	c-2.2,3.954-3.847,9.158-4.964,15.59c-1.143,6.573-1.715,14.412-1.715,23.502c0,6.318,0.391,12.008,1.179,17.066
	c0.788,5.002,1.983,9.472,3.577,13.399v0.017c2.269,5.635,4.963,10.389,8.063,14.234c0.581,0.729,1.196,1.438,1.819,2.114
	c0.624,0.676,1.265,1.313,1.914,1.914l0.078,0.073l0.026,0.025c2.45,2.244,6.192,5.189,11.198,8.821
	c5.188,3.765,11.657,8.216,19.401,13.359l-0.01,0.01c7.874,5.162,14.273,9.579,19.201,13.237c5.05,3.772,8.662,6.834,10.802,9.182
	l0.025,0.026c4.399,4.983,6.6,15.001,6.6,30.006h-0.008c0,4.983-0.581,9.15-1.742,12.467c-0.225,0.667-0.493,1.322-0.787,1.953
	l0.009,0.009c-0.286,0.611-0.615,1.214-0.979,1.798l-0.009,0.013l-0.017,0.026h0.009c-1.309,2.135-3.006,3.75-5.067,4.841
	c-2.018,1.065-4.33,1.599-6.929,1.599c-3.707,0-6.703-0.904-8.965-2.663v-0.009c-0.441-0.347-0.892-0.754-1.299-1.195
	c-0.433-0.474-0.806-0.932-1.1-1.378l-0.018-0.026l-0.043-0.087c-1.048-1.684-1.818-4.194-2.277-7.538
	c-0.434-3.088-0.659-6.963-0.659-11.602v-26.26h-52.079v12.653h0.018c0,8.994,0.441,16.889,1.343,23.692
	c0.875,6.722,2.208,12.459,3.967,17.205l-0.009,0.008c1.681,4.504,4.313,8.632,7.916,12.373c3.673,3.811,8.35,7.236,14.014,10.259
	h0.009c4.746,2.547,9.917,4.569,15.512,6.06v0.008c1.161,0.303,2.27,0.576,3.326,0.813c6.946,1.546,14.499,2.334,22.657,2.334
	v-0.008h0.078c7.491,0,14.473-0.684,20.942-2.022c6.443-1.33,12.445-3.325,18.023-5.976v0.008c7.848-3.75,13.85-8.141,17.989-13.143
	c0.797-0.979,1.524-1.945,2.139-2.902v-0.008c0.659-1.01,1.239-2.022,1.732-3.014l0.018-0.022v-0.009v-0.008
	c1.55-3.127,2.798-7.076,3.725-11.784v-0.021c0.233-1.144,0.398-2.083,0.527-2.88c0.988-6.162,1.49-13.454,1.499-21.86h-0.018
	v-0.126c0-11.653-0.884-21.656-2.65-30.02c-1.724-8.17-4.295-14.757-7.7-19.733c-3.463-5.058-9.457-10.892-17.997-17.491
	c-8.687-6.721-19.964-14.209-33.864-22.458l-0.009-0.008c-5.023-2.997-9.086-5.773-12.151-8.307
	c-3.248-2.697-5.525-5.253-6.781-7.683l-0.009,0.009c-1.039-1.931-1.854-4.257-2.451-6.955l-0.018-0.009
	c-0.096-0.476-0.199-1.001-0.313-1.559c-0.554-3.157-0.84-6.863-0.848-11.096h-0.009v-0.107c0-4.815,0.563-8.843,1.671-12.043
	c0.217-0.642,0.477-1.26,0.763-1.862c0.303-0.657,0.606-1.226,0.918-1.72l0.009-0.013l0.017-0.034
	c1.265-2.032,2.858-3.555,4.772-4.591c1.897-1.022,4.054-1.538,6.462-1.538c2.182,0,4.122,0.382,5.794,1.136
	c1.81,0.818,3.256,2.057,4.33,3.736c0.831,1.283,1.473,3.149,1.914,5.562l0.009,0.078l0.199,1.233l0.018,0.061
	c0.39,2.759,0.589,6.287,0.589,10.589h0.026v0.168V385.848z M992.539,392.136h-58.358h-3.144v-3.139v-17.891v-0.168h0.026
	c-0.018-3.955-0.199-7.21-0.555-9.727l-0.173-1.101c-0.295-1.597-0.642-2.706-1.031-3.309c-0.398-0.632-0.952-1.091-1.637-1.402
	l-0.009-0.018c-0.814-0.363-1.889-0.55-3.204-0.55c-1.369,0-2.529,0.26-3.491,0.771c-0.927,0.507-1.732,1.304-2.408,2.377
	l-0.008,0.019l-0.026,0.026l0.009,0.008c-0.233,0.354-0.433,0.71-0.589,1.049c-0.173,0.38-0.347,0.817-0.511,1.286
	c-0.875,2.493-1.309,5.827-1.309,9.977v0.107h-0.008c0,3.768,0.269,7.112,0.779,9.996v0.009c0.069,0.423,0.165,0.87,0.269,1.319
	h-0.018c0.468,2.093,1.092,3.876,1.862,5.322l0.026,0.061c0.831,1.633,2.59,3.547,5.239,5.748c2.867,2.368,6.652,4.958,11.354,7.76
	c14.083,8.354,25.585,15.993,34.498,22.891c9.076,7.008,15.52,13.32,19.348,18.913c3.872,5.663,6.765,12.999,8.661,21.989
	c1.862,8.816,2.798,19.258,2.798,31.301v0.126h-0.017c0,8.743-0.538,16.36-1.568,22.844c-0.199,1.26-0.39,2.343-0.546,3.132
	c-1.039,5.235-2.46,9.695-4.27,13.35l-0.018,0.019l-0.008,0.008l0.008,0.008c-0.623,1.274-1.333,2.509-2.096,3.673h-0.008
	c-0.798,1.213-1.655,2.383-2.556,3.474c-4.703,5.686-11.416,10.636-20.128,14.793v0.008c-5.985,2.851-12.473,5.015-19.471,6.458
	c-6.938,1.428-14.334,2.156-22.189,2.156h-0.078V565.8c-8.617-0.011-16.638-0.837-24.018-2.482c-1.264-0.286-2.459-0.581-3.568-0.87
	h-0.008c-6.071-1.615-11.692-3.823-16.872-6.6c-6.253-3.345-11.441-7.159-15.563-11.441c-4.201-4.361-7.293-9.216-9.276-14.537
	h-0.009c-1.914-5.124-3.334-11.325-4.296-18.587c-0.936-7.185-1.412-15.353-1.412-24.498h0.019v-15.793v-3.141h3.126h58.358h3.135
	v3.141v29.399c0,4.426,0.2,8.007,0.58,10.739c0.338,2.403,0.779,4.08,1.325,5.011l0.009-0.008l0.026,0.024
	c0.173,0.27,0.329,0.473,0.468,0.615c0.146,0.157,0.337,0.325,0.537,0.494h0.017c1.135,0.879,2.842,1.343,5.11,1.343
	c1.576,0,2.919-0.294,4.002-0.87c1.047-0.541,1.931-1.412,2.649-2.582l0.018-0.025l0.018-0.026v-0.009
	c0.208-0.328,0.416-0.718,0.615-1.139h0.008c0.182-0.407,0.373-0.857,0.546-1.364c0.936-2.658,1.395-6.145,1.395-10.41h-0.009
	c0-13.446-1.68-22.078-5.015-25.862c-1.845-2.014-5.145-4.799-9.865-8.311c-4.876-3.637-11.198-7.994-18.906-13.056h-0.026
	c-7.891-5.249-14.438-9.758-19.608-13.507c-5.266-3.824-9.225-6.947-11.865-9.377l-0.096-0.086l-0.026-0.026h0.009
	c-0.736-0.684-1.455-1.402-2.148-2.156c-0.719-0.771-1.429-1.599-2.121-2.456c-3.474-4.33-6.487-9.604-8.982-15.823h-0.008
	c-1.759-4.317-3.066-9.259-3.941-14.802c-0.857-5.49-1.281-11.493-1.281-18.023c0-9.406,0.605-17.594,1.818-24.567
	c1.229-7.094,3.118-12.957,5.656-17.551c2.521-4.599,5.837-8.709,9.934-12.29c4.036-3.539,8.843-6.583,14.387-9.129v-0.009
	l0.061-0.025l0.026-0.019c1.541-0.691,3.144-1.347,4.763-1.948c1.585-0.589,3.265-1.134,5.023-1.649
	c8.756-2.573,18.656-3.886,29.656-3.886h0.095v0.019c8.375,0,16.127,0.684,23.229,2.03c2.408,0.451,4.729,0.983,6.955,1.577
	c4.504,1.207,8.774,2.732,12.758,4.567c6.045,2.776,11.068,5.925,15.104,9.445c4.141,3.612,7.24,7.627,9.32,12.053l0.008,0.016
	c1.983,4.271,3.465,9.971,4.435,17.102c0.936,6.926,1.402,15.274,1.402,25.026h0.01v9.537v3.139H992.539z M765.628,418.699v-61.507
	v-3.14h3.136c6.254,0,11.068,0.746,14.473,2.209c0.753,0.33,1.42,0.686,2.01,1.048c0.649,0.408,1.229,0.857,1.74,1.347l0.078,0.053
	l0.025,0.034l-0.009,0.008c1.716,1.643,2.963,4.11,3.742,7.362c0.711,2.963,1.065,6.618,1.065,10.957h-0.018v19.872h0.018
	c0,6.717-0.642,11.914-1.905,15.538c-0.278,0.783-0.581,1.49-0.909,2.14v0.008c-0.347,0.671-0.745,1.313-1.188,1.88l-0.034,0.035
	l-0.026,0.034c-1.498,1.875-3.533,3.273-6.08,4.17c-2.338,0.833-5.136,1.252-8.392,1.252c-0.442,0-1.179-0.017-2.201-0.056h-0.025
	l-0.952-0.034h-0.026l-1.005-0.045h-0.026l-0.52-0.034l-2.971-0.168V418.699z M771.907,360.402v55.291l1.447,0.019
	c2.555,0,4.65-0.295,6.305-0.879c1.446-0.508,2.538-1.235,3.283-2.158h-0.009c0.173-0.229,0.363-0.54,0.545-0.895l0.018-0.019
	c0.198-0.389,0.39-0.831,0.563-1.338c1.031-2.937,1.542-7.431,1.542-13.481h0.018V377.07h-0.018c0-3.924-0.294-7.098-0.857-9.511
	c-0.502-2.074-1.178-3.521-2.018-4.308l-0.078-0.065l-0.026-0.026v-0.008c-0.207-0.194-0.441-0.365-0.71-0.542
	c-0.363-0.221-0.745-0.425-1.152-0.602C778.706,361.13,775.762,360.589,771.907,360.402z M788.39,313.407
	c1.308,0.107,2.572,0.213,3.819,0.337c6.791,0.693,12.585,1.737,17.348,3.14h0.009l0.052,0.018c1.378,0.408,2.668,0.823,3.872,1.252
	c1.178,0.407,2.391,0.889,3.638,1.417c6.132,2.598,11.008,5.88,14.603,9.829l0.017,0.026l0.044,0.044h-0.009
	c0.701,0.778,1.377,1.558,1.992,2.367c0.658,0.841,1.273,1.686,1.828,2.517c2.927,4.4,5.04,9.384,6.287,14.919
	c0.867,3.78,1.49,8.54,1.914,14.27c0.407,5.694,0.624,12.346,0.624,19.946v21.046v0.152h-0.018c0,7.851-0.407,14.641-1.212,20.354
	c-0.147,1.047-0.295,1.97-0.426,2.767c-0.822,4.638-1.939,8.566-3.36,11.745v0.008c-1.774,3.91-4.295,7.379-7.544,10.384
	c-3.194,2.953-7.066,5.448-11.622,7.493l-0.018,0.021c-8.921,3.944-20.449,5.924-34.593,5.924h-13.728v94.185v3.132h-3.144h-62.889
	h-3.135v-3.132V337.705l6.288-1.144V554.44h56.6v-94.198v-3.149h3.136h16.871c13.27,0,23.957-1.801,32.064-5.382
	c3.939-1.768,7.249-3.89,9.925-6.361c2.599-2.403,4.625-5.197,6.063-8.371v0.01c1.204-2.682,2.166-6.103,2.893-10.255
	c0.156-0.914,0.304-1.771,0.407-2.556c0.771-5.479,1.161-11.979,1.169-19.491h-0.017v-0.152v-21.046c0-7.536-0.19-14.04-0.598-19.5
	c-0.398-5.448-0.988-9.899-1.759-13.352c-1.082-4.759-2.892-9.042-5.412-12.823c-0.494-0.753-1.014-1.463-1.525-2.125
	c-0.554-0.702-1.125-1.386-1.714-2.032l-0.01-0.013l-0.025-0.026h-0.009c-2.997-3.287-7.128-6.054-12.386-8.28
	c-0.961-0.41-2.069-0.836-3.29-1.268c-1.179-0.421-2.383-0.802-3.577-1.157h-0.01l-0.051-0.018c-4.4-1.303-9.805-2.27-16.18-2.914
	l-1.324-0.134L788.39,313.407z M572.252,322.021c0.867,5.478,1.742,11.181,2.625,17.123c1.204,8.206,2.504,17.456,3.897,27.654
	l5.404,38.343l11.381-89.667l0.347-2.742h2.754h62.732l0.874,6.263h-60.852l-13.971,110.143l-2.944,23.21l-3.266-23.172
	l-8.67-61.516v-0.008c-1.29-9.51-2.598-18.687-3.905-27.604c-0.736-5.019-1.465-9.781-2.166-14.251
	C568.442,324.554,570.356,323.307,572.252,322.021z M683.79,341.174v216.393v3.153h-3.136h-54.937h-3.136v-3.153v-116.34
	l-15.729,116.761l-0.364,2.732h-2.736H564.77h-2.72l-0.381-2.708l-16.897-116.396v115.95v3.153h-3.136h-54.937h-3.14v-3.153V358.869
	c2.083-0.39,4.179-0.814,6.279-1.286v196.848h48.654V398.116V354.62l6.244,43.051l22.744,156.76h33.536l21.601-160.45l6.244-46.418
	v46.835v160.033h48.649V342.322L683.79,341.174z M384.611,348.52v148.563c0,5.195,0.13,9.444,0.407,12.727
	c0.264,3.07,0.619,5.188,1.091,6.331l0.017,0.074c0.321,0.822,0.762,1.415,1.329,1.779c0.628,0.407,1.525,0.615,2.667,0.615
	c1.395,0,2.469-0.252,3.231-0.728c0.653-0.421,1.152-1.083,1.498-1.996l0.026-0.092l0.017,0.008c0.108-0.315,0.204-0.752,0.321-1.28
	c0.126-0.589,0.238-1.243,0.329-1.945c0.542-3.937,0.815-10.146,0.815-18.608v-140.72c2.083,0.736,4.178,1.425,6.287,2.074v138.646
	c0,8.658-0.298,15.14-0.896,19.444c-0.112,0.901-0.255,1.703-0.397,2.382c-0.152,0.729-0.33,1.404-0.533,2.006v0.034l-0.026,0.09
	l-0.025,0.061c-0.823,2.261-2.191,4.002-4.071,5.198c-1.801,1.134-3.992,1.706-6.574,1.706c-2.364,0-4.378-0.533-6.054-1.606
	c-1.714-1.102-2.97-2.708-3.78-4.807v0.008l-0.018-0.034l-0.008-0.039c-0.693-1.746-1.195-4.452-1.499-8.085
	c-0.303-3.479-0.441-7.895-0.441-13.242V345.515C380.397,346.566,382.498,347.563,384.611,348.52z M465.532,361.415v115.998v0.449
	h-0.013c-0.009,9.116-0.156,16.878-0.459,23.23v0.017l-0.16,3.015v0.008c-0.294,5.036-0.702,9.164-1.204,12.346v0.01
	c-0.659,4.01-1.927,8.047-3.798,12.099c-1.854,3.98-4.317,8.024-7.387,12.113v0.009c-3.123,4.144-6.73,7.785-10.831,10.925
	c-4.08,3.132-8.644,5.752-13.711,7.869l-0.043,0.019l-0.026,0.008c-1.446,0.603-2.884,1.152-4.313,1.649h-0.016
	c-1.382,0.468-2.89,0.931-4.513,1.372c-7.895,2.166-16.656,3.258-26.226,3.258c-7.406,0-14.412-0.61-20.986-1.854
	c-6.604-1.244-12.77-3.113-18.49-5.596v-0.008c-5.756-2.495-10.792-5.366-15.119-8.622c-4.391-3.3-8.054-6.999-10.991-11.069
	l-0.008-0.008c-2.871-4.045-5.171-8.203-6.881-12.481c-1.724-4.292-2.85-8.695-3.36-13.229c-0.515-4.283-0.896-10.987-1.139-20.099
	c-0.255-9.267-0.373-20.574-0.373-33.985V315.863v-3.14h3.14h14.421c2.2,2.111,4.491,4.204,6.859,6.278h-18.127v139.854
	c0,13.918,0.104,25.208,0.342,33.844c0.234,8.782,0.606,15.29,1.109,19.504v0.026c0.446,3.976,1.437,7.842,2.944,11.609
	c1.529,3.802,3.594,7.53,6.175,11.173h-0.008c2.572,3.56,5.79,6.804,9.658,9.715c3.936,2.953,8.556,5.585,13.853,7.886h0.008
	c5.288,2.295,10.996,4.022,17.136,5.178c6.153,1.153,12.77,1.737,19.838,1.737c9.073,0,17.296-1.01,24.576-3.014
	c1.329-0.364,2.716-0.793,4.144-1.277c1.391-0.481,2.703-0.988,3.945-1.499l0.043-0.018l0.026-0.009
	c4.56-1.909,8.656-4.262,12.311-7.063c3.639-2.776,6.839-6.021,9.624-9.718h0.008c2.776-3.699,5.011-7.362,6.687-10.973
	c1.65-3.557,2.758-7.052,3.317-10.473c0.463-2.935,0.845-6.837,1.126-11.692l0.161-3.006c0.303-6.355,0.463-14.013,0.463-22.926
	h-0.008v-0.449v-115.53C461.335,361.77,463.427,361.609,465.532,361.415z M220.87,361.194v46.545
	c4.712-0.226,8.02-0.979,9.926-2.274l0.017-0.026l0.025-0.016h0.009c0.109-0.079,0.225-0.213,0.355-0.373
	c0.204-0.264,0.398-0.603,0.585-1.01c1.269-2.74,1.909-7.717,1.909-14.893v-13.25h0.009c0-3.565-0.312-6.476-0.922-8.709
	c-0.515-1.872-1.217-3.2-2.114-4.002v0.009l-0.034-0.035l-0.018-0.008c-0.238-0.213-0.523-0.426-0.857-0.62
	c-0.394-0.229-0.784-0.437-1.156-0.592h-0.009c-1.455-0.625-3.3-1.075-5.535-1.335l10.788-2.888
	c0.299,0.211,0.584,0.449,0.857,0.691v-0.013l0.035,0.039l0.031,0.019c1.845,1.606,3.191,3.962,4.053,7.092
	c0.762,2.776,1.144,6.229,1.144,10.352h0.009v13.25c0,8.082-0.836,13.933-2.494,17.517c-0.381,0.823-0.814,1.56-1.296,2.192
	c-0.541,0.697-1.151,1.294-1.827,1.754l-0.035,0.034l-0.026,0.019l-0.008-0.01c-3.396,2.3-8.921,3.443-16.569,3.443h-3.14v-3.14
	v-48.078L220.87,361.194z M818.885,122.955c-3.629,16.257-20.432,35.297-59.232,53.295l-4.53,2.092l0.087-4.977l1.352-86.567
	l0.025-2.069l1.914-0.789c15.798-6.526,34.55-3.326,47.004,5.881c5.127,3.776,9.224,8.596,11.666,14.183
	C819.647,109.651,820.427,116.056,818.885,122.955z M761.55,168.399c33.5-16.334,48.111-32.868,51.221-46.791
	c1.238-5.519,0.615-10.615-1.343-15.105c-1.992-4.539-5.388-8.496-9.648-11.654c-10.341-7.635-25.671-10.52-38.991-5.834
	L761.55,168.399z M643.36,33.806l27.187,293.038l109.009-11.467l-16.153-72.99l-0.996-4.483l4.521,0.692
	c45.853,7.078,79.612,0.889,103.335-12.745c13.624-7.82,23.957-18.109,31.389-29.746c7.439-11.636,11.995-24.67,14.048-37.956
	c3.794-24.611-1.022-50.014-11.961-69.072C870.409,31.066,787.81,18.771,716.252,23.205c-13.971,0.871-27.56,2.387-40.309,4.331
	C664.181,29.32,653.208,31.481,643.36,33.806z M664.597,330.577L636.873,31.668l-0.251-2.695l2.632-0.631l0.147-0.034
	c10.731-2.625,22.763-5.029,35.606-6.981c12.854-1.958,26.633-3.495,40.872-4.37c73.462-4.56,158.444,8.37,193.271,68.998
	c11.641,20.267,16.768,47.155,12.758,73.152c-2.174,14.073-7.024,27.927-14.975,40.359c-7.951,12.455-19.002,23.459-33.554,31.813
	c-24.095,13.849-57.777,20.41-102.884,14.191l15.919,71.974l0.762,3.429l-3.49,0.365l-115.651,12.177l-3.145,0.329L664.597,330.577z
	 M449.292,156.101l-0.143-1.261c-1.776,0.291-3.547,0.663-5.288,1.153c-10.944,3.021-20.964,9.79-27.811,19.971
	c-6.912,10.264-10.627,24.053-8.895,41.063c0.52,5.162,1.55,10.636,3.148,16.399c0.494,1.819,1.087,3.613,1.763,5.375
	c5.101,13.303,14.395,22.29,25.624,27.036c11.333,4.798,24.68,5.343,37.719,1.736c2.057-0.566,4.149-1.26,6.271-2.075
	c1.26-0.479,2.455-0.986,3.59-1.507c13.398-6.184,21.688-16.374,25.212-28.621h0.009c3.586-12.445,2.347-27.096-3.352-41.95
	c-0.754-1.97-1.577-3.923-2.46-5.845c-6.409-13.896-17.491-22.29-32.089-26.139c-2.945-0.771-6.024-1.373-9.207-1.788
	c-3.231-0.429-6.592-0.676-10.077-0.754l-0.958-0.026l-2.75-0.056L449.292,156.101z M455.021,150.948l0.195,1.746
	c3.083,0.124,6.084,0.363,8.972,0.744c3.486,0.463,6.83,1.1,9.986,1.936c16.435,4.335,28.937,13.823,36.194,29.578
	c0.979,2.101,1.854,4.184,2.642,6.245c6.167,16.097,7.466,32.118,3.5,45.904v0.008c-4.036,13.979-13.442,25.576-28.612,32.574
	c-1.303,0.607-2.646,1.174-3.993,1.69c-2.208,0.839-4.495,1.593-6.82,2.243c-14.386,3.971-29.188,3.343-41.825-2.005
	c-12.753-5.399-23.307-15.556-29.057-30.583c-0.715-1.852-1.365-3.832-1.94-5.932c-1.685-6.101-2.785-11.927-3.343-17.452
	c-1.888-18.574,2.252-33.756,9.926-45.163c7.721-11.485,19.02-19.12,31.349-22.528c3.079-0.849,6.227-1.446,9.401-1.762l3.07-0.313
	L455.021,150.948z M451.57,42.391c-0.143-2.6-0.321-5.411-0.498-8.229c-7.154,0.78-14.304,2.022-21.345,3.708
	c-34.848,8.327-67.466,27.582-90.271,56.778c-22.782,29.187-35.783,68.386-31.414,116.659c0.975,10.788,2.828,22.034,5.626,33.714
	c0.974,4.088,2.117,8.072,3.429,11.956c12.312,36.537,38.36,61.307,71.204,74.585c33.081,13.368,73.06,15.14,112.931,5.591
	c6.669-1.598,13.39-3.534,20.094-5.785c5.993-2.022,11.718-4.249,17.166-6.669c38.377-17.063,63.321-43.881,75.473-75.82
	c12.194-32.01,11.614-69.231-1.109-106.993c-2.147-6.431-4.668-12.871-7.525-19.284v-0.018
	c-16.786-37.823-48.936-60.484-92.674-70.709c-8.626-2.022-17.695-3.559-27.153-4.633c-9.553-1.078-19.487-1.693-29.768-1.87
	l-1.087-0.018l-2.919-0.042L451.57,42.391z M457.122,30.516l0.143,2.138l0.407,6.5c9.909,0.213,19.414,0.823,28.512,1.854
	c9.749,1.109,19.059,2.685,27.894,4.743c45.66,10.678,79.3,34.482,96.977,74.293c2.945,6.608,5.535,13.242,7.752,19.842
	c13.174,39.149,13.754,77.843,1.03,111.226c-12.739,33.454-38.783,61.515-78.789,79.305c-5.638,2.512-11.554,4.816-17.738,6.891
	c-6.807,2.299-13.7,4.278-20.63,5.933c-41.123,9.848-82.445,7.985-116.712-5.858c-34.501-13.946-61.87-39.985-74.81-78.414
	c-1.347-3.997-2.547-8.159-3.582-12.495c-2.867-11.982-4.763-23.531-5.768-34.605c-4.53-50.012,9.003-90.702,32.716-121.081
	c23.71-30.356,57.587-50.364,93.756-59.012c8.379-2.006,16.894-3.408,25.438-4.18l3.209-0.281L457.122,30.516z M137.334,358.825
	l-1.603,0.317l0.017-3.82l0.121-36.32H6.253v42.084h34.073h3.148v3.14v190.205h56.548V364.226v-3.132h3.14h34.172V358.825z
	 M143.596,357.583v6.643v3.131h-3.131h-34.164v190.21v3.153h-3.139H40.326h-3.14v-3.153V367.365H3.122H0v-3.14v-48.362v-3.14h3.122
	h132.779l0.502-145.36l-74.356,6.465l-3.36,0.291l-0.039-3.395L57.293,36.821l-0.026-3.318l3.309,0.161L306.74,45.841l3.005,0.152
	l-0.026,2.997l-0.671,79.126l-0.03,2.564l-2.507,0.497l-90.482,17.704l21.311,187.162l0.329,2.861l-2.836,0.56l-80.834,16.053
	l1.343,23.207l2.641-0.705V554.44h56.6V448.567v-3.144h3.14c6.717,0,11.736,0.957,15.027,2.818c0.745,0.424,1.399,0.889,1.966,1.391
	l0.009-0.01c0.615,0.542,1.148,1.144,1.589,1.793l0.009,0.019l0.017,0.025l0.017,0.026c1.074,1.642,1.918,4.196,2.503,7.631
	c0.086,0.55,0.186,1.202,0.281,1.965c0.533,4.097,0.819,9.437,0.827,15.993h0.009v0.186v77.17h52.07v-60.613
	c0-9.853-0.125-17.674-0.385-23.451c-0.247-5.732-0.619-9.605-1.096-11.57l-0.021-0.035c-0.433-1.87-1.256-3.866-2.447-5.988
	c-1.251-2.227-2.88-4.548-4.859-6.951c-1.853-2.252-4.682-4.313-8.471-6.185c-3.979-1.965-8.994-3.697-14.997-5.196l-17.863-4.47
	l18.34-1.692c9.306-0.861,16.339-2.936,21.076-6.201c0.866-0.602,1.668-1.252,2.373-1.932c0.675-0.658,1.304-1.376,1.854-2.139
	l0.022-0.008l0.043-0.061c2.065-2.868,3.646-7.221,4.724-13.065c1.139-6.095,1.706-13.772,1.706-23.013
	c0-10.13-0.81-18.813-2.403-26.054c-1.563-7.084-3.885-12.813-6.963-17.196c-4.426-6.267-9.774-10.844-16.001-13.692
	c-1.221-0.56-2.473-1.054-3.742-1.472c-1.277-0.426-2.615-0.797-3.979-1.102l-0.057-0.008v0.008
	c-2.073-0.45-4.547-0.865-7.405-1.221l-1.1-6.449c3.876,0.442,7.159,0.949,9.834,1.535l0.009,0.008l0.074,0.017
	c1.559,0.347,3.096,0.772,4.595,1.27c1.507,0.497,2.971,1.073,4.378,1.711c7.275,3.324,13.455,8.604,18.531,15.788
	c3.538,5.045,6.196,11.529,7.946,19.449c1.702,7.76,2.563,16.896,2.563,27.408c0,9.565-0.606,17.611-1.818,24.146
	c-1.251,6.794-3.205,12-5.812,15.61l-0.018,0.01l-0.043,0.061h0.009c-0.753,1.039-1.625,2.03-2.607,2.972
	c-0.94,0.912-2.005,1.774-3.157,2.571c-3.053,2.101-6.803,3.781-11.264,5.028c1.391,0.567,2.694,1.143,3.919,1.758
	c4.595,2.26,8.115,4.876,10.536,7.82c2.244,2.732,4.089,5.356,5.5,7.869c1.473,2.625,2.517,5.17,3.097,7.626h-0.009
	c0.576,2.369,1,6.626,1.265,12.771c0.268,6.146,0.402,14.057,0.402,23.715v63.749v3.153h-3.14h-58.35h-3.14v-3.153v-80.306v-0.186
	h0.009c0-6.271-0.268-11.334-0.771-15.184c-0.074-0.531-0.16-1.131-0.269-1.74c-0.424-2.524-0.948-4.266-1.55-5.205l-0.025-0.025
	l0.008-0.01c-0.134-0.186-0.312-0.382-0.523-0.566v-0.018c-0.26-0.234-0.568-0.447-0.906-0.642h-0.017
	c-1.854-1.044-4.78-1.693-8.782-1.904v105.785v3.132h-3.148h-62.879h-3.148v-3.132v-201.6L143.596,357.583z M143.596,315.863v35.318
	l8.098-1.615v-33.703v-0.534l1.945,33.856l77.148-15.316l-21.319-187.17l-0.32-2.875l2.836-0.56l90.82-17.764l0.628-73.55
	L63.589,40.085l1.287,127.188l74.403-6.474l3.412-0.291l-0.017,3.421l-0.524,148.794h1.447V315.863z"/>
</svg>
